# xmcd
#
# Track frame offsets: 
#        150
#        20021
#        39460
#        58948
#        81418
#        104424
#        127291
#
# Disc length: 1979 seconds
#
# Revision: 0
# Processed by: cddbd v1.5.2PL0 Copyright (c) Steve Scherf et al.
# Submitted via: ExactAudioCopy v1.3
#
DISCID=6507b907
DTITLE=Sister Mercy - Head Over Heels
DYEAR=2014
DGENRE=Blues, Rhythm and Blues
TTITLE0=My Mind's Made Up
TTITLE1=Upside Down Inside Out
TTITLE2=Holding On To Love
TTITLE3=Come To Me
TTITLE4=Sister Mercy
TTITLE5=Heavy Load
TTITLE6=I'm Done
EXTD=
EXTT0=
EXTT1=
EXTT2=
EXTT3=
EXTT4=
EXTT5=
EXTT6=
PLAYORDER=
